<svg xmlns="http://www.w3.org/2000/svg" xmlns:xlink="http://www.w3.org/1999/xlink" width="72" height="72" viewBox="0 0 72 72">
  <defs>
    <filter id="Caminho_3" x="2.216" y="2.381" width="67.568" height="56.525" filterUnits="userSpaceOnUse">
      <feOffset input="SourceAlpha"/>
      <feGaussianBlur stdDeviation="7" result="blur"/>
      <feFlood flood-color="red" flood-opacity="0.49"/>
      <feComposite operator="in" in2="blur"/>
      <feComposite in="SourceGraphic"/>
    </filter>
    <filter id="Elipse_1" x="0" y="0" width="72" height="72" filterUnits="userSpaceOnUse">
      <feOffset input="SourceAlpha"/>
      <feGaussianBlur stdDeviation="3" result="blur-2"/>
      <feFlood flood-color="#af0000"/>
      <feComposite operator="in" in2="blur-2"/>
      <feComposite in="SourceGraphic"/>
    </filter>
    <filter id="Caminho_4" x="2.216" y="14.906" width="67.568" height="56.525" filterUnits="userSpaceOnUse">
      <feOffset input="SourceAlpha"/>
      <feGaussianBlur stdDeviation="7" result="blur-3"/>
      <feFlood flood-color="red" flood-opacity="0.49"/>
      <feComposite operator="in" in2="blur-3"/>
      <feComposite in="SourceGraphic"/>
    </filter>
  </defs>
  <g id="Grupo_4" data-name="Grupo 4" transform="translate(9 8.71)">
    <g transform="matrix(1, 0, 0, 1, -9, -8.71)" filter="url(#Caminho_3)">
      <g id="Caminho_3-2" data-name="Caminho 3" transform="translate(-107.93 -369.53)" fill="red" stroke-linecap="round" stroke-linejoin="round">
        <path d="M 143.8896179199219 407.1078491210938 L 143.5526275634766 406.803955078125 L 131.8080291748047 396.2126770019531 L 131.3624725341797 395.8108825683594 L 131.8380279541016 395.445068359375 L 134.3510284423828 393.5119018554688 L 134.6873779296875 393.2531433105469 L 134.9973602294922 393.54296875 L 143.8933258056641 401.8604125976562 L 153.1078643798828 393.5371704101562 L 153.415771484375 393.259033203125 L 153.7458953857422 393.5103759765625 L 156.0133056640625 395.2366638183594 L 156.4900207519531 395.599609375 L 156.047607421875 396.0036926269531 L 144.2246704101562 406.8018493652344 L 143.8896179199219 407.1078491210938 Z" stroke="none"/>
        <path d="M 134.6558837890625 393.908203125 L 132.1428833007812 395.8413696289062 L 143.8874816894531 406.4326477050781 L 155.7104187011719 395.6344909667969 L 153.4430236816406 393.908203125 L 143.8874816894531 402.5394592285156 L 134.6558837890625 393.908203125 M 134.6557006835938 392.908203125 C 134.9020690917969 392.908203125 135.1475524902344 392.9989013671875 135.3388366699219 393.177734375 L 143.8991394042969 401.1813659667969 L 152.772705078125 393.1661071777344 C 153.1297912597656 392.8435363769531 153.6658935546875 392.8210754394531 154.0487976074219 393.112548828125 L 156.3161926269531 394.8388366699219 C 156.5521240234375 395.0184936523438 156.6961669921875 395.2935485839844 156.7094268798828 395.5898132324219 C 156.7226715087891 395.8860473632812 156.603759765625 396.1728820800781 156.3847961425781 396.3728637695312 L 144.5618591308594 407.1710205078125 C 144.1817169189453 407.5182800292969 143.60009765625 407.5200805664062 143.2177734375 407.17529296875 L 131.4731750488281 396.5840148925781 C 131.2527923583984 396.38525390625 131.1320648193359 396.098876953125 131.1436462402344 395.8023376464844 C 131.1552276611328 395.5057983398438 131.2979278564453 395.2297058105469 131.5331573486328 395.0487670898438 L 134.0461578369141 393.1156005859375 C 134.2266082763672 392.9767761230469 134.4414825439453 392.908203125 134.6557006835938 392.908203125 Z" stroke="none" fill="red"/>
      </g>
    </g>
    <g transform="matrix(1, 0, 0, 1, -9, -8.71)" filter="url(#Elipse_1)">
      <g id="Elipse_1-2" data-name="Elipse 1" transform="translate(9 9)" fill="none" stroke="red" stroke-width="3" opacity="0.8">
        <circle cx="27" cy="27" r="27" stroke="none"/>
        <circle cx="27" cy="27" r="25.5" fill="none"/>
      </g>
    </g>
    <g transform="matrix(1, 0, 0, 1, -9, -8.71)" filter="url(#Caminho_4)">
      <g id="Caminho_4-2" data-name="Caminho 4" transform="translate(-107.93 -357)" fill="red" stroke-linecap="round" stroke-linejoin="round">
        <path d="M 143.8896179199219 407.1078491210938 L 143.5526275634766 406.803955078125 L 131.8080291748047 396.2126770019531 L 131.3624725341797 395.8108825683594 L 131.8380279541016 395.445068359375 L 134.3510284423828 393.5119018554688 L 134.6873779296875 393.2531433105469 L 134.9973602294922 393.54296875 L 143.8933258056641 401.8604125976562 L 153.1078643798828 393.5371704101562 L 153.415771484375 393.259033203125 L 153.7458953857422 393.5103759765625 L 156.0133056640625 395.2366638183594 L 156.4900207519531 395.599609375 L 156.047607421875 396.0036926269531 L 144.2246704101562 406.8018493652344 L 143.8896179199219 407.1078491210938 Z" stroke="none"/>
        <path d="M 134.6558837890625 393.908203125 L 132.1428833007812 395.8413696289062 L 143.8874816894531 406.4326477050781 L 155.7104187011719 395.6344909667969 L 153.4430236816406 393.908203125 L 143.8874816894531 402.5394592285156 L 134.6558837890625 393.908203125 M 134.6557006835938 392.908203125 C 134.9020690917969 392.908203125 135.1475524902344 392.9989013671875 135.3388366699219 393.177734375 L 143.8991394042969 401.1813659667969 L 152.772705078125 393.1661071777344 C 153.1297912597656 392.8435363769531 153.6658935546875 392.8210754394531 154.0487976074219 393.112548828125 L 156.3161926269531 394.8388366699219 C 156.5521240234375 395.0184936523438 156.6961669921875 395.2935485839844 156.7094268798828 395.5898132324219 C 156.7226715087891 395.8860473632812 156.603759765625 396.1728820800781 156.3847961425781 396.3728637695312 L 144.5618591308594 407.1710205078125 C 144.1817169189453 407.5182800292969 143.60009765625 407.5200805664062 143.2177734375 407.17529296875 L 131.4731750488281 396.5840148925781 C 131.2527923583984 396.38525390625 131.1320648193359 396.098876953125 131.1436462402344 395.8023376464844 C 131.1552276611328 395.5057983398438 131.2979278564453 395.2297058105469 131.5331573486328 395.0487670898438 L 134.0461578369141 393.1156005859375 C 134.2266082763672 392.9767761230469 134.4414825439453 392.908203125 134.6557006835938 392.908203125 Z" stroke="none" fill="red"/>
      </g>
    </g>
  </g>
</svg>
